<svg id="svg" xmlns="http://www.w3.org/2000/svg" viewBox="0 0 152.19 250.01"><defs><style>.cls-1{fill:#fff;fill-rule:evenodd;}</style></defs><g id="svgg"><path id="path0" class="cls-1" d="M63.24,1.52c-.83.07-4.53.59-5.84.82-.19,0-.79.19-1.35.35s-1.26.34-1.55.39a3.79,3.79,0,0,0-.9.3,2.44,2.44,0,0,1-.53.21l-.22,0-.59.12a4.59,4.59,0,0,0-1.12.4c-.33.17-1,.5-1.49.72s-1.36.64-1.91.94l-1.8.92a4.29,4.29,0,0,0-.9.52A10.4,10.4,0,0,1,43.86,8c-.59.34-1.07.71-1.07.83a.21.21,0,0,1-.22.2c-.32,0-.81.45-3.67,3.32s-2.72,2.74-3.53,3.9a8.17,8.17,0,0,1-.7.91,57.52,57.52,0,0,0-2.76,5.25c-.2.94-.27,1-3.22,1s-2.89,0-4.22.73-3.92,3-3.92,3.47a.19.19,0,0,1-.17.2,31.17,31.17,0,0,0-2.65,5.47,2.91,2.91,0,0,1-.1.28,1.63,1.63,0,0,0-.1.29c0,.09-.16.57-.3,1.07a19.65,19.65,0,0,0-.64,3.61,14.73,14.73,0,0,1-.29,1.83A89.46,89.46,0,0,0,16.37,51c.07.43.24,1.35.39,2A14,14,0,0,1,17,54.8a.9.9,0,0,0,.2.64.24.24,0,0,1,.06.34.57.57,0,0,0,.14.55c.15.18.2.33.1.33s-.06.13.06.28a5.25,5.25,0,0,1,.49,1.19,18.05,18.05,0,0,0,1.61,3.5,1.77,1.77,0,0,1,.28.45c.08.19.4.78.7,1.32,1,1.76,1.24,6.39.48,9a12.24,12.24,0,0,0-.24,1.25A8.54,8.54,0,0,1,20.35,76a2.33,2.33,0,0,0-.19.68,4.12,4.12,0,0,1-.21.79c-.08.18-.17.41-.2.51a1.51,1.51,0,0,1-.1.28,1.94,1.94,0,0,0-.11.34,2.58,2.58,0,0,1-.12.34,2.1,2.1,0,0,0-.11.33,1.94,1.94,0,0,1-.11.34c0,.07-.07.19-.1.29A41.22,41.22,0,0,1,17,85.22a10,10,0,0,0-.48,1.18,9.39,9.39,0,0,1-2.11,3.44,13.9,13.9,0,0,0-2.74,2L10.29,93a21.42,21.42,0,0,0-1.54,1.67c-.49.6-1.07,1.29-1.29,1.52a1.62,1.62,0,0,0-.39.54,2,2,0,0,1-.42.57,5.65,5.65,0,0,0-.73,1.06,4,4,0,0,1-.43.73,60.18,60.18,0,0,0-2.75,5.53L2,106.44a5.36,5.36,0,0,0-.23.62,2.74,2.74,0,0,1-.11.28,1.06,1.06,0,0,0-.08.32.84.84,0,0,1-.2.37,1.58,1.58,0,0,0-.17.8,1.08,1.08,0,0,1-.23.77.43.43,0,0,0-.18.41,7.11,7.11,0,0,1-.22,1.5,22.63,22.63,0,0,0-.59,6.1c0,3.14.19,6.15.45,6.56a3.63,3.63,0,0,1,.25,1A29.53,29.53,0,0,0,4,132.31a5,5,0,0,1,.63,1c0,.2.55.8,2.34,2.56,2.15,2.14,2.36,2.32,2.58,2.32s.26.15.33.34a.56.56,0,0,0,.48.34c.19,0,.34.1.34.22s.15.23.34.23.34.1.34.23a.24.24,0,0,0,.25.22,2.89,2.89,0,0,1,1,.57,3.43,3.43,0,0,0,.92.56,8.67,8.67,0,0,1,1.48.78,4.64,4.64,0,0,0,1.29.66c0-.07.35.1.78.37s.79.42.79.34.23,0,.51.14a3.36,3.36,0,0,0,.77.33,8.9,8.9,0,0,1,2.26.82c.15.13.28.17.28.1s.33,0,.73.11c3.12,1,8.38,1.06,12.64.19a7.47,7.47,0,0,0,1.91-.53c.47-.19,2.54-.87,2.81-.93,1.22-.22,4.83-2.84,4.83-3.5a1.44,1.44,0,0,1,.45-.57,1.33,1.33,0,0,0,.45-.72c0-.16.08-.3.19-.3A50.39,50.39,0,0,0,49,131.8a6.59,6.59,0,0,1,.19-.65,21.11,21.11,0,0,0,.73-4.06c.12-1.53,0-1.43.84-1a7,7,0,0,1,.84.52,40.79,40.79,0,0,0,6.58,3.28,3.35,3.35,0,0,1,.93.28,1.46,1.46,0,0,0,.36.18,4.51,4.51,0,0,1,.45.15,8.12,8.12,0,0,0,1.23.3l1.13.23c.32.08,1.43.28,2.47.45,1.58.26,5.84.17,5.84-.12a.94.94,0,0,1,.4-.12c.22,0,.39.06.39.25a.53.53,0,0,0,.33.45.55.55,0,0,1,.34.46.54.54,0,0,0,.34.45.54.54,0,0,1,.34.44c0,.17.08.32.18.32a3.11,3.11,0,0,1,.84.91c.36.5.91,1.21,1.22,1.56l1.58,1.81c1.31,1.51,5,5.26,6.52,6.55.64.56,1.41,1.25,1.71,1.53a2.49,2.49,0,0,0,.69.5,1.26,1.26,0,0,1,.49.33c1.15,1.06,1.38,1.25,1.5,1.25a1,1,0,0,1,.42.29,19.81,19.81,0,0,0,2.6,1.81c.8.52,1.66,1,1.91,1.18l2.81,1.45c1.29.68,2.41,1.25,2.47,1.26a18.37,18.37,0,0,1,1.94.79,8.89,8.89,0,0,0,1.8.57,3.34,3.34,0,0,1,1.14.39c.16.12.29.17.29.1s.37,0,.84.09a23,23,0,0,0,7.47.84c1.42,0,2.84,0,3.14-.07.74-.07,2.69-.37,3.26-.5a5.25,5.25,0,0,1,.79-.12,1.13,1.13,0,0,0,.56-.19,3.55,3.55,0,0,1,1.08-.3,9,9,0,0,0,1.68-.51c.46-.21.89-.39,1-.41a44.24,44.24,0,0,0,4.94-2.5,7.75,7.75,0,0,1,1.29-.65c.28-.09.51-.26.51-.37s.13-.21.28-.21a2.13,2.13,0,0,0,.89-.57,2.21,2.21,0,0,1,.85-.56.49.49,0,0,0,.37-.34.53.53,0,0,1,.44-.34.89.89,0,0,0,.59-.45c.16-.25.36-.45.45-.45s1-.75,4.14-3.91a59.78,59.78,0,0,0,5.2-5.68c2.61-3.26,6.48-9.66,6.89-11.4a5,5,0,0,1,.34-.68A2.13,2.13,0,0,0,150,126a.15.15,0,0,1,0-.11s0-.25.09-.47a6.08,6.08,0,0,1,.24-.79,5,5,0,0,0,.23-.61,28.06,28.06,0,0,0,1.11-4.89c.05-.45.15-1.11.22-1.46a43.68,43.68,0,0,0,0-6.27c-.06-.38-.16-1.2-.22-1.82s-.18-1.39-.24-1.7-.23-1.12-.36-1.8a5.92,5.92,0,0,0-.47-1.53c-.13-.15-.16-.28-.07-.28s.06-.13-.08-.3a2,2,0,0,1-.33-.73,7,7,0,0,0-.36-1.11,8.06,8.06,0,0,1-.33-.91,3.74,3.74,0,0,0-.32-.73c-.15-.28-.23-.51-.18-.51a15.66,15.66,0,0,0-1-2.09c-.6-1.14-1.22-2.34-1.37-2.65a9.91,9.91,0,0,0-.78-1.26,2.78,2.78,0,0,1-.52-1,.25.25,0,0,0-.22-.26c-.13,0-.23-.15-.23-.34s-.1-.34-.22-.34a.26.26,0,0,1-.23-.28,2.18,2.18,0,0,0-.5-.9,14.32,14.32,0,0,1-2-2.56,2,2,0,0,0-.5-.65c-.28-.28-.81-.89-1.18-1.35s-2.16-2.34-4-4.16a67.27,67.27,0,0,0-5.76-5.38c-.33-.27-1.06-.9-1.62-1.41a4.3,4.3,0,0,0-1.3-.91.53.53,0,0,1-.42-.34c-.07-.19-.22-.34-.34-.34a7.32,7.32,0,0,1-1.46-1c-.69-.53-1.42-1.06-1.62-1.19a2.71,2.71,0,0,1-.48-.35,1.39,1.39,0,0,0-.47-.26c-.31-.12-.38-1.09-.52-7.78-.09-4.2-.2-8.35-.26-9.21-.16-2.62-.56-8.06-.69-9.26-.07-.62-.16-1.52-.2-2s-.18-1.34-.3-1.92c-.21-.94-.34-1.61-.57-3.09a1.36,1.36,0,0,0-.12-.45,2.35,2.35,0,0,1-.16-.66,7.81,7.81,0,0,0-.46-1.46c-.2-.45-.38-.86-.39-.93s-.17-.36-.34-.67a2.32,2.32,0,0,1-.28-.62s-.33-.82-.75-1.76-.78-1.75-.78-1.79-.5-.94-1.12-2a14.29,14.29,0,0,1-1.13-2.16.23.23,0,0,0-.21-.25c-.11,0-.27-.22-.36-.48a14.35,14.35,0,0,0-2.07-3.12,2.59,2.59,0,0,1-.5-.74,1.5,1.5,0,0,0-.4-.6c-.21-.24-.59-.69-.84-1-1.46-1.86-2-2.4-6.21-6.56a2.61,2.61,0,0,0-.73-.58,12.22,12.22,0,0,1-1.6-1.13,8.75,8.75,0,0,0-1.67-1.13.22.22,0,0,1-.24-.2c0-.27-5.16-2.8-6.74-3.3a9.65,9.65,0,0,1-1.46-.57,9,9,0,0,0-1.57-.56c-.74-.22-1.5-.45-1.68-.52L87.9,4.4a1,1,0,0,1-.23-.1,2.33,2.33,0,0,0-.39-.13L86.38,4l-.78-.19a1.83,1.83,0,0,1-.51-.22.52.52,0,0,0-.49,0,.27.27,0,0,1-.36-.11.38.38,0,0,0-.46-.13.37.37,0,0,1-.44-.1A.24.24,0,0,0,83,3,2.4,2.4,0,0,1,82,2.91a24.4,24.4,0,0,0-2.69-.52c-.49-.08-1.17-.2-1.5-.27a72.34,72.34,0,0,0-14.56-.6M78.18,17.73a15,15,0,0,1,2.64.86,4.34,4.34,0,0,0,1.15.47c.36.08,2.23.87,4.16,1.74l4.47,2,1.91.86a6.29,6.29,0,0,0,1.13.44,6.88,6.88,0,0,1,1,.44c.46.24,2,1,3.36,1.64a14,14,0,0,1,2.53,1.39c0,.1.14.18.31.18a4.59,4.59,0,0,1,1.41.75L104.47,30a7,7,0,0,1,1.3,1,.62.62,0,0,0,.46.3,18.65,18.65,0,0,1,2.68,2.54l2.85,3a1.57,1.57,0,0,1,.46.71.49.49,0,0,0,.34.37.56.56,0,0,1,.34.47c0,.19.07.35.17.35s.37.37.62.83a6.69,6.69,0,0,0,.67,1.07,39.42,39.42,0,0,1,2.92,5.55,4.09,4.09,0,0,0,.26.56,9.46,9.46,0,0,1,.4,2.37c.53,7.06.76,19.87.32,18.29-.12-.44-.28-1-.35-1.13s-.16-.39-.18-.45-.1-.27-.17-.46a8.75,8.75,0,0,1-.28-1,7.47,7.47,0,0,0-.49-1.39,6.75,6.75,0,0,1-.41-1.13c0-.23-.09-.44-.1-.47a.81.81,0,0,1,0-.17,4,4,0,0,0-.34-.79,44.53,44.53,0,0,1-1.8-4.8c-.12-.56-1.21-3.8-1.47-4.34a18,18,0,0,1-.64-2.17,19.1,19.1,0,0,0-.92-2.75,9.49,9.49,0,0,1-.54-1.33A41.31,41.31,0,0,0,108,39.69c-1.54-2.65-5-6.15-7.07-7.19l-2.05-1.06a27.8,27.8,0,0,0-5.06-2.14,2.82,2.82,0,0,1-.78-.21,3.43,3.43,0,0,0-.9-.28c-1.3-.28-1.69-.37-2.19-.49-.28-.07-.86-.17-1.29-.23l-1.35-.2c-.31-.05-1.16-.15-1.9-.22s-1.58-.18-1.88-.24-1.57-.15-2.82-.23L77.14,27c-.7-.06-2.72-.15-4.5-.22s-3.78-.17-4.46-.23-2.1-.17-3.16-.24-2.23-.16-2.61-.21l-2.12-.23c-.79-.08-2.14-.25-3-.38a74.15,74.15,0,0,0-12.36-.72c-4.79,0-5.92.1-7,.44S39,23.05,41,21.7a5.32,5.32,0,0,0,.9-.7,20,20,0,0,1,3.26-1.77,8.5,8.5,0,0,0,1.24-.29l.62-.23A18.14,18.14,0,0,1,51,18c2.36-.29,10.33-.57,16.38-.56,3.69,0,6.76,0,6.81-.09.25-.25,2.1-.06,4,.43M27.86,27.6c-.06.28-.27,1.62-.48,3-.51,3.49-1.48,7-2.11,7.56a11,11,0,0,0-.67,1.19,4,4,0,0,1-.69,1.07,2.54,2.54,0,0,0-.55.73,10.39,10.39,0,0,1-1.58,2.11l-1.23,1.44c-.77.92-1,.85-.82-.27.07-.53.2-2,.27-3.22a13.18,13.18,0,0,1,.35-2.64,1.23,1.23,0,0,0,.16-.57,19.72,19.72,0,0,1,.65-3.22c.07-.19.16-.42.18-.51a.73.73,0,0,1,.1-.23,2.58,2.58,0,0,0,.11-.44,12.74,12.74,0,0,1,1.67-3.34c2.4-2.82,5-4.3,4.64-2.65m38.86,6.6,1.46.25c.31.06,1,.16,1.46.22a27.36,27.36,0,0,1,3.15.68c.25.06.72.15,1,.2s1,.2,1.46.32,1.16.28,1.53.35l1.24.25a26,26,0,0,0,4.38.46,15.44,15.44,0,0,1,2.83.34,5,5,0,0,0,1.11.32,28.42,28.42,0,0,1,5.83,2.86,1.46,1.46,0,0,0,.65.41.34.34,0,0,1,.29.17,5.1,5.1,0,0,0,1,.79c1.79,1.17,7.25,6.5,7.25,7.07a1.05,1.05,0,0,0,.28.43,4.18,4.18,0,0,1,1.07,1.47A.22.22,0,0,0,103,51c.12,0,.22.15.22.34s.11.34.23.34a.22.22,0,0,1,.22.23,1.5,1.5,0,0,0,.4.67,40,40,0,0,1,3.09,5.87c-.08,0,.06.38.3.84a10.43,10.43,0,0,1,.81,1.87,29,29,0,0,0,1.28,3.71,1.25,1.25,0,0,1,.19.68,6.73,6.73,0,0,0,.34,1.41,10.59,10.59,0,0,1,.43,1.7c.06.4.16,1,.23,1.3,1.26,5.74,1.64,18.79.67,22.91-.06.25-.25,1.37-.43,2.48s-.37,2.29-.45,2.6-.19.82-.26,1.13l-.2.9a2.91,2.91,0,0,1-.12.45,1.82,1.82,0,0,0-.09.34,10.49,10.49,0,0,1-.59,2.14,35.49,35.49,0,0,0-1.26,3.93,4,4,0,0,1-.39,1,10,10,0,0,0-1.12,2.52,40.63,40.63,0,0,1-3,5.57,2.76,2.76,0,0,0-.54,1,.23.23,0,0,1-.22.24c-.13,0-.23.15-.23.34s-.1.34-.22.34-.23.15-.23.33-.09.34-.19.34-.48.43-.82.95a42.85,42.85,0,0,1-6.81,7.4,14.6,14.6,0,0,0-1.11,1,1.26,1.26,0,0,1-.66.4.62.62,0,0,0-.45.29,4.38,4.38,0,0,1-1.08.84,7.8,7.8,0,0,0-1,.66c-.56.62-5.85,3.13-7.87,3.74-.68.2-1.43.46-1.68.57-1.32.59-1.74.37-3.6-1.93-.37-.46-.8-1-1-1.13a1,1,0,0,1-.28-.52c0-.12-.15-.27-.34-.35a.52.52,0,0,1-.34-.4c0-.14.06-.21.14-.13s.49-.07.93-.32a2.46,2.46,0,0,1,2.54-.18,4.68,4.68,0,0,0,.72.35.6.6,0,0,1,.22.08,12.5,12.5,0,0,0,4.28.12c2.93-.56,8.33-5,12.07-9.84.31-.4.67-.84.8-1a2.16,2.16,0,0,0,.38-.63c.09-.22.26-.4.39-.4s.23-.15.23-.34.1-.34.23-.34.32-.25.44-.56.3-.57.41-.57.38-.35.62-.79.5-.79.6-.79.17-.15.17-.33.08-.34.18-.34.36-.33.6-.74a4.78,4.78,0,0,1,.57-.84,10.13,10.13,0,0,0,.9-1.47,17.94,17.94,0,0,1,1.15-1.89,2,2,0,0,0,.42-.85c0-.17.1-.31.22-.31a.22.22,0,0,0,.23-.22,10.76,10.76,0,0,1,.72-1.75c.4-.84.74-1.58.75-1.64s.2-.49.4-1a4.27,4.27,0,0,0,.38-1.37,1.21,1.21,0,0,1,.15-.69,1.24,1.24,0,0,0,.21-.55c0-.21.13-.9.23-1.52.59-3.51.18-10-.91-14.44-.36-1.5-.47-2.35-.33-2.52a2.32,2.32,0,0,0,.32-.83,8.93,8.93,0,0,1,.55-1.54,5.14,5.14,0,0,0,.44-1.45,1.11,1.11,0,0,1,.18-.64.79.79,0,0,0,.19-.32,2.76,2.76,0,0,1,.15-.49c.07-.19.24-.85.38-1.47s.29-1.33.36-1.58c.42-1.59.56-6.68.21-7.48-.1-.23-.2-.47-.22-.53a37.75,37.75,0,0,0-3-5.53,3.54,3.54,0,0,1-.53-.85c-.08-.22-.24-.4-.37-.4a.24.24,0,0,1-.23-.26,2.14,2.14,0,0,0-.56-.85c-1.56-1.63-4.93-5-5.68-5.6L96.27,50.8a6,6,0,0,0-1.18-.91,7.62,7.62,0,0,1-1.39-1A9,9,0,0,0,92,47.75c-.26-.08-.47-.24-.47-.36s-.15-.21-.34-.21-.33-.09-.33-.2-.31-.32-.68-.48-.67-.36-.67-.45-.29-.28-.63-.4a3.18,3.18,0,0,1-1-.53,4.63,4.63,0,0,0-.88-.6,10.62,10.62,0,0,1-1.85-1.13A49,49,0,0,0,80.88,41a13.21,13.21,0,0,0-2.19-.95l-.34-.1c-1.08-.35-3.57-.46-12-.56-7.5-.08-14.36-.35-17.53-.67-.31,0-1-.08-1.46-.1l-.9,0,.56-.47a24.39,24.39,0,0,1,4.49-2.33c.31-.1.87-.3,1.24-.46A43.64,43.64,0,0,1,57.85,34a83.27,83.27,0,0,1,8.87.19m10.11,9.2a11.51,11.51,0,0,1,2,.89,5.8,5.8,0,0,0,1.29.63.2.2,0,0,1,.22.17,3.6,3.6,0,0,0,1.23.72,4.8,4.8,0,0,1,1.24.69c0,.08.33.26.73.4a15.89,15.89,0,0,1,2.28,1.29,11,11,0,0,0,1.74,1,.21.21,0,0,1,.19.23.23.23,0,0,0,.23.22,5.08,5.08,0,0,1,1.76,1.19.45.45,0,0,0,.39.17c.17,0,.32.08.32.17s.35.37.78.6.79.52.79.62.17.27.38.35a2.68,2.68,0,0,1,.74.5c.21.19.67.58,1,.86a34.49,34.49,0,0,1,4.24,3.79,37.16,37.16,0,0,1,2.6,2.81c.31.42.71.93.9,1.13a10.22,10.22,0,0,1,1.57,2.48.21.21,0,0,0,.19.23,13.1,13.1,0,0,1,1.49,3,5.81,5.81,0,0,0,.18.56c.55,1.47.67,7.25.15,7.85a1.35,1.35,0,0,0-.1.28,1.35,1.35,0,0,1-.1.28,1.37,1.37,0,0,0-.13.4c-.52,2.1-.87,2.25-1.15.47a4.09,4.09,0,0,0-.27-1,1.16,1.16,0,0,1-.17-.39,1.32,1.32,0,0,0-.09-.28c0-.07-.07-.19-.1-.29s-.38-.83-.8-1.63-.91-1.74-1.08-2.07a5.54,5.54,0,0,0-.73-1.06,1.61,1.61,0,0,1-.44-.71.5.5,0,0,0-.33-.37c-.19-.07-.34-.22-.34-.33a1.52,1.52,0,0,0-.39-.62,5.54,5.54,0,0,1-1.18-1.56,5.25,5.25,0,0,0-.79-1A3.91,3.91,0,0,1,96.49,65a.21.21,0,0,0-.21-.21c-.11,0-.28-.23-.36-.51a1.54,1.54,0,0,0-.33-.62c-.09-.06-1-1.84-2-3.95a40.28,40.28,0,0,0-2.05-3.91.34.34,0,0,1-.16-.28c0-.67-4-4.5-4.66-4.5-.16,0-.29-.08-.29-.18A2.75,2.75,0,0,0,85,50.19a3.36,3.36,0,0,1-.67-.31,5.82,5.82,0,0,0-.67-.34l-.9-.38a8.31,8.31,0,0,0-1.69-.52,4.94,4.94,0,0,1-1.12-.3A3.81,3.81,0,0,0,78.63,48a7.51,7.51,0,0,1-1-.28l-.56-.18a1.47,1.47,0,0,1-.34-.09c-.12,0-.17-.06-1.8-.47-.55-.14-1.16-.31-1.35-.38l-.5-.18a1.51,1.51,0,0,1-.28-.1l-.28-.11c-.09,0-.45-.16-.78-.3A28.48,28.48,0,0,0,68,44.79a3.54,3.54,0,0,1-.85-.27,1.8,1.8,0,0,0-.41-.19.7.7,0,0,1-.23-.07,3.62,3.62,0,0,0-.71-.16,4.08,4.08,0,0,1-1-.32,2.09,2.09,0,0,0-.85-.21.75.75,0,0,1-.59-.23c-.2-.33,12.32-.27,13.48.06m-27.67.89a2.77,2.77,0,0,0,.79.32c.27,0,2.8.87,3.63,1.18a2.53,2.53,0,0,0,.56.14,1.35,1.35,0,0,1,.52.21c.16.1.35.13.42.06s.48,0,.91.2a4.21,4.21,0,0,0,1.18.33,5.14,5.14,0,0,1,1.38.44,9.2,9.2,0,0,0,1.57.54,6.65,6.65,0,0,1,1.54.63L63,49.1c.23.12.42.3.42.39s.12.17.26.17a16.85,16.85,0,0,1,2.5,2.26,21.16,21.16,0,0,0,2.42,2.26,1.09,1.09,0,0,1,.49.28,8.54,8.54,0,0,0,2.2,1.32l2.34,1.14a11.5,11.5,0,0,0,1.8.75,3.58,3.58,0,0,1,.52.13.57.57,0,0,0,.23.09c.09,0,.32.11.5.19a9.43,9.43,0,0,0,2.7.67c0-.08.12,0,.27.12a1,1,0,0,0,.62.27c.5,0,2.17,1.7,2.87,2.92a10.37,10.37,0,0,0,.73,1.15,68.15,68.15,0,0,1,3,6.43,10.54,10.54,0,0,0,.76,1.5,7.08,7.08,0,0,1,.73,1.52.24.24,0,0,0,.22.25.22.22,0,0,1,.22.21c0,.21.5.85,1.59,2.07a7.72,7.72,0,0,1,1,1.5,4.33,4.33,0,0,0,.63,1c.1.08.16.18.14.23a6.37,6.37,0,0,0,1,2,.4.4,0,0,1,.17.33,9.58,9.58,0,0,0,1.35,2.19,19.5,19.5,0,0,1,2.13,4.26,2.7,2.7,0,0,0,.19.66c.48.79.51,6.82,0,9.23,0,.26-.15,1.47-.23,2.7s-.2,2.53-.26,2.91a57.94,57.94,0,0,1-3.2,6.88,5.34,5.34,0,0,0-.59,1c-.24.47-.52.85-.62.85s-.17.15-.17.34-.1.33-.22.33-.23.16-.23.34-.1.34-.22.34-.23.16-.23.35a.54.54,0,0,1-.34.47.5.5,0,0,0-.33.37,1.25,1.25,0,0,1-.33.6c-.19.2-.67.76-1.07,1.24-3.78,4.56-11.85,10.43-15.25,11.08a2,2,0,0,0-.79.36c-.17.14-.31.18-.31.09s-.16,0-.34.11-.34.21-.34.12-.15,0-.34.11-.33.21-.33.11-.14,0-.3.09-.37.18-.45.1-.31,0-.51.17c-.57.48-4.34.41-6.83-.12a26.2,26.2,0,0,1-4.49-1.3,19.2,19.2,0,0,1-3.6-1.74,5.28,5.28,0,0,0-1.26-.79,4.38,4.38,0,0,1-1.37-1,.43.43,0,0,0-.33-.3,2.08,2.08,0,0,1-.75-.51c-.3-.28-.91-.81-1.36-1.18a3.58,3.58,0,0,1-1.32-2,4.73,4.73,0,0,0-.22-.61,5,5,0,0,1-.23-.68A16.89,16.89,0,0,0,47,114.27a18,18,0,0,1-.87-2.09A.21.21,0,0,0,46,112c-.11,0-.28-.23-.37-.51a4.7,4.7,0,0,0-.69-1.21,2.61,2.61,0,0,1-.52-1,.25.25,0,0,0-.23-.26c-.12,0-.22-.14-.22-.32a.44.44,0,0,0-.18-.39,7,7,0,0,1-1-1.21,10,10,0,0,0-1-1.35A11.7,11.7,0,0,1,40,103.39c.08,0,0-.13-.08-.28a3.78,3.78,0,0,1-.39-1.19,5.25,5.25,0,0,0-.3-1.13,1.78,1.78,0,0,1-.2-.45c0-.12-.2-.89-.4-1.69s-.38-1.67-.44-1.92-.15-.71-.22-1c-.19-.78-.38-1.83-.45-2.39a2.23,2.23,0,0,0-.19-.69,6.15,6.15,0,0,1-.26-1.44c-.07-.68-.16-1.44-.21-1.68s-.17-1.07-.26-1.81-.2-1.61-.24-1.92-.13-1.33-.21-2.26a18.61,18.61,0,0,0-.25-2.09c-.1-.33,0-.38.42-.27l1,.22a2.52,2.52,0,0,1,.49.12.67.67,0,0,0,.23.08,1.4,1.4,0,0,1,.39.17,8.89,8.89,0,0,0,2.13.53,8,8,0,0,1,1.13.32,9.14,9.14,0,0,0,1.35.34c.43.07,1.29.28,1.91.45,1,.28,2.11.55,3.93.94.31.07.86.17,1.23.23a7.08,7.08,0,0,1,1,.24,24,24,0,0,0,6.34,0c.95-.45,1.77-1.89,1.49-2.62-.12-.33-.23-.65-.24-.71-.08-.7-2.5-3.17-3.51-3.6-.4-.16-.71-.38-.71-.49s-.16-.2-.34-.2a5.08,5.08,0,0,1-1.3-.44c-2.13-1-7.05-1.25-10.59-.54a5.5,5.5,0,0,1-1.08.12.68.68,0,0,0-.52.19.36.36,0,0,1-.43.08.38.38,0,0,0-.45.13A1,1,0,0,1,39,77a6.07,6.07,0,0,0-1.81.57c-1.58.74-1.48,1.12-1.56-5.42l-.07-5.72.84-.64a21.45,21.45,0,0,0,4.18-4.62,11.42,11.42,0,0,1,.64-.95,61.2,61.2,0,0,0,4.15-7.83,3.11,3.11,0,0,1,.26-.56,2,2,0,0,0,.25-.63,3.54,3.54,0,0,1,.23-.79c.12-.34.3-.82.39-1.07a6.5,6.5,0,0,0,.24-.81,8.57,8.57,0,0,1,.34-1c.15-.35.29-.7.31-.76s.1-.27.18-.45a4.92,4.92,0,0,0,.24-.79c.31-1.51.48-1.67,1.34-1.2M44.76,67l-1.28.07.11,1.38c.16,1.83,0,1.76,2.67,1.76a22.57,22.57,0,0,1,3.52.24l1.77.34a17.85,17.85,0,0,1,1.86.44l.28.1a1.54,1.54,0,0,0,.28.09,1.72,1.72,0,0,1,.45.21c.15.1.28.12.28.05a10.18,10.18,0,0,1,2.88,1.49.45.45,0,0,0,.4.2c.17,0,.32.1.32.22a.25.25,0,0,0,.26.23A9.48,9.48,0,0,1,61,76.32a.2.2,0,0,0,.17.21c.2,0,.36.27,1.21,2.08a12.36,12.36,0,0,1,1.21,5c.09,1.23.48,12,.56,15.8,0,.87.07,2.14.12,2.82s.09,1.37.09,1.54.13.22.27.13a10.36,10.36,0,0,1,3.06-.41c.52,0,1-.12,1-.24s0-.33.06-.46a1.53,1.53,0,0,1,.21-.52c.1-.16.13-.36,0-.43s0-.26.11-.42c.42-.52-.12-1.16-.88-1-1,.14-.86,1-1.28-10.22-.25-6.88-.36-8.74-.53-9.21a1.45,1.45,0,0,1-.09-.76.36.36,0,0,0-.15-.4.8.8,0,0,1-.23-.61c0-.58-2-4.71-2.27-4.71a.21.21,0,0,1-.21-.2,15.21,15.21,0,0,0-2.93-3,.19.19,0,0,1-.21-.18c0-.11-.28-.34-.62-.51l-1.91-1A5.18,5.18,0,0,0,56.5,69c0,.06-.32-.06-.7-.26a5.31,5.31,0,0,0-1.29-.46,4.51,4.51,0,0,1-.93-.25,3.5,3.5,0,0,0-.68-.2c-.63-.11-1.68-.33-2-.43-.18,0-1.3-.16-2.47-.24S46.22,67,46.16,67s-.69,0-1.4,0M32.12,79.91c.09,1.55.19,3.13.23,3.5s.12,1.29.18,2,.22,2,.35,2.82.29,2,.35,2.6a17.86,17.86,0,0,0,.34,2c.25,1,.3,1.84.11,1.64a.9.9,0,0,1-.19-.43,4.86,4.86,0,0,0-.43-1,5.64,5.64,0,0,1-.41-.9,5.19,5.19,0,0,0-.24-.74,7.82,7.82,0,0,1-.3-.9,1.14,1.14,0,0,0-.1-.34,1.43,1.43,0,0,1-.12-.41,4.25,4.25,0,0,0-.24-.79c-.09-.21-.18-.43-.2-.49s-.11-.27-.19-.45a5,5,0,0,1-.23-.79,3.34,3.34,0,0,0-.23-.79,4.74,4.74,0,0,1-.22-1,3,3,0,0,0-.22-.93,4,4,0,0,1-.26-1.1c-.07-.49-.2-1.34-.29-1.9-.3-1.84-.2-7.56.14-8,.16-.2.24-.46.17-.57a5.38,5.38,0,0,1,.71-1.84l.84-1.62.15,3.8c.08,2.09.21,5.07.3,6.62M120.48,77A18.64,18.64,0,0,0,122,78.44c.46.38,1,.81,1.13,1a1,1,0,0,0,.54.29.49.49,0,0,1,.38.33c.07.19.23.34.36.34a3.28,3.28,0,0,1,1,.62c.41.35,1.57,1.23,2.58,2a49,49,0,0,1,5.75,5.35c.35.38.35.38-.05,4.24-.07.69-.21,1.8-.31,2.49a43.08,43.08,0,0,0,.09,7.67c.08.31.18.72.23.9a2,2,0,0,0,.12.4,1.22,1.22,0,0,1,.11.28,1.94,1.94,0,0,0,.11.34,2.91,2.91,0,0,1,.1.28c.07.26.55,1.33,1.72,3.78a36.08,36.08,0,0,1,2.11,4.8,2.22,2.22,0,0,0,.12.45.94.94,0,0,1,.1.28,1.36,1.36,0,0,0,.11.29c.29.35.5,4.85.23,5a.88.88,0,0,0-.22.65,2,2,0,0,1-.45,1,2,2,0,0,0-.45.7,8.93,8.93,0,0,1-1.29,1.44l-2.55,2.5a18.17,18.17,0,0,0-3.26,5.19,21.31,21.31,0,0,1-1.92,4.17c-.11,0-.19.13-.19.3a4.5,4.5,0,0,1-.79,1.34,6.45,6.45,0,0,0-.79,1.2c0,.39-4.48,4.54-5.67,5.26-.46.28-.84.6-.84.72a.22.22,0,0,1-.22.21,13,13,0,0,0-2.48,1.6,10.69,10.69,0,0,1-1.35.86c-.68.4-1.69,1-2.24,1.39s-1.17.72-1.35.81a7.16,7.16,0,0,0-1.76,1.26.35.35,0,0,1-.29.17,1,1,0,0,0-.49.24,10,10,0,0,1-1,.68c-.37.24-1,.7-1.45,1s-.94.54-1.35.43-.77-.18-1-.22a5.83,5.83,0,0,1-2.3-.61c-.15-.13-.28-.16-.28-.08s-.21,0-.46-.1a3.69,3.69,0,0,0-.85-.33,9.23,9.23,0,0,1-1.22-.44,5.19,5.19,0,0,0-1-.35c-.1,0-3.27-1.63-4.8-2.46a6.07,6.07,0,0,1-1-.74,1.54,1.54,0,0,0-.74-.42c-.16,0-.3-.1-.3-.22s-.15-.23-.33-.23c-.94,0,2.65-2,3.93-2.16a4.62,4.62,0,0,0,.67-.26,15.29,15.29,0,0,1,1.58-.61,39.27,39.27,0,0,0,6.28-3.47,6.65,6.65,0,0,1,1.16-.84,6.69,6.69,0,0,0,2-2.13c.3-.44.59-.82,1.3-1.7.1-.12.56-.85,1-1.6,1.45-2.38,3.65-4.47,5-4.77a14.41,14.41,0,0,1,6.25.45c1.26.67,5.58.26,5.92-.56a.36.36,0,0,1,.31-.18,2.47,2.47,0,0,0,1.3-1.3c0-.15.1-.28.21-.28.68,0,1.27-5.12.68-6a3.56,3.56,0,0,1-.28-.9,8.4,8.4,0,0,0-.34-1.25c-.11-.31-.22-.64-.24-.73s-.93-2-2-4.12-2-4-1.9-4-.06-.25-.26-.56-.3-.57-.22-.57.07-.13,0-.28a1.88,1.88,0,0,1-.19-.4c0-.06-.16-.57-.32-1.12-.29-1-.39-4.3-.29-10.28a34.5,34.5,0,0,0-.05-3.49c-.22-1.29-.37-2.18-.44-2.6a3.43,3.43,0,0,0-.12-.56,1.75,1.75,0,0,1-.1-.34,5.53,5.53,0,0,0-.17-.57c-.08-.18-.29-1-.49-1.7a19.5,19.5,0,0,0-.62-2,18.49,18.49,0,0,1-.58-1.91c-.16-.68-.33-1.34-.37-1.47s-.46-2.37-.92-5.25c-.06-.4,0-.73.07-.73a3.1,3.1,0,0,1,.87.73M46.23,79.52a6,6,0,0,1-.15.78s-.88-.12-1.89-.32c-1.77-.35-2.29-.6-1.45-.69,1.27-.15,3.54-.45,3.57-.48a3.22,3.22,0,0,1-.08.71m7.22,1c1.75,1.13,1.77,1.5.09,1.35-2.07-.17-2.23-.27-2.17-1.3s.51-1.07,2.08,0M21.2,88a13.07,13.07,0,0,0,.21,2.2c.14.75.3,1.66.36,2a7.71,7.71,0,0,0,.41,1.7A7.67,7.67,0,0,1,22.43,95a9.17,9.17,0,0,0,.5,1.58c.21.47.4.91.42,1s.31.72.65,1.47.93,2.06,1.33,2.93a9.48,9.48,0,0,0,.88,1.7,6.45,6.45,0,0,1,.64,1.13c.26.55.82,1.62,1.26,2.36,2.87,4.91,5.71,10.65,6,12.24a11.7,11.7,0,0,0,.79,2.22c.75,1,.7,7-.06,8-.13.15-.17.28-.08.28s0,.23-.13.51a3.19,3.19,0,0,0-.33.81,5.36,5.36,0,0,1-.69,1.19c-.35.49-.73,1.07-.86,1.29A13.41,13.41,0,0,1,30,136.35c-.13,0-.29.15-.36.33a.54.54,0,0,1-.46.34.45.45,0,0,0-.4.2,9.71,9.71,0,0,1-2.88,1.47c0-.08-.15,0-.34.14s-.33.2-.33.11-.13-.06-.3.08c-.35.29-1.54.5-3.7.64-2.41.16-6.63-1.84-4.85-2.29.62-.15.75-.25,2.14-1.54a9,9,0,0,0,2.53-3.91c.33-.86.69-1.76.81-2a13.68,13.68,0,0,0,.59-2.93c.49-3.09-.84-9.6-2-9.6a.22.22,0,0,1-.21-.23A7.58,7.58,0,0,0,19,115.62c-2.25-2.28-3.33-3.86-3.53-5.14-.05-.36-.18-1.06-.27-1.56a61.38,61.38,0,0,1,0-8.92,19.56,19.56,0,0,1,.55-3.27c.09-.25.18-.53.2-.62a1.54,1.54,0,0,1,.09-.28,3,3,0,0,0,.11-.29,13.58,13.58,0,0,1,1.7-3.44c.07-.06.6-.87,1.18-1.8s1.25-2,1.5-2.26A2.24,2.24,0,0,0,21,87.3c0-.09.06-.16.13-.16s.1.38.08.84M7.46,104.23A28.71,28.71,0,0,0,8,107.34c1.24,6.26,1.38,7.2,1.35,8.91A18.06,18.06,0,0,1,9.05,119l-.29,1.5a3.73,3.73,0,0,1-.32.94,2.22,2.22,0,0,0-.25.88,10.54,10.54,0,0,1-1.11,2.31c-1.14,1.94-1.81,2.81-1.81,2.34A3.59,3.59,0,0,0,5,126a10,10,0,0,1-.59-1.76,17.37,17.37,0,0,1-.65-5.53,24.12,24.12,0,0,1,.5-6.55c.07-.31.18-.87.25-1.24a4.11,4.11,0,0,1,.33-1.07c.11-.22.15-.4.08-.4s0-.3.23-.67.28-.68.2-.68,0-.15.13-.34.22-.34.14-.34,0-.25.22-.56.32-.57.25-.57A4.4,4.4,0,0,1,6.63,105c.74-1.53.83-1.61.83-.74m61.62,2.11c-.68.24-1.44.53-1.68.64-1.51.71-3.05.92-3.58.5a6.51,6.51,0,0,0-2-.58.52.52,0,0,1-.28-.15,11.61,11.61,0,0,0-3.53.66c-.33.13-.66.18-.73.11s-.26,0-.41.11a3.56,3.56,0,0,1-1.24.38,8.47,8.47,0,0,0-1.72.46c-.41.17-.82.26-.89.18s-.27,0-.43.11a3.55,3.55,0,0,1-2.58.08c-.4-.12-.73-.18-.73-.12s-.2,0-.45-.14c-.74-.4-.5.07.36.68.43.31.91.66,1.07.79a9,9,0,0,0,1.89,1.12A11.39,11.39,0,0,1,54.44,113a26.36,26.36,0,0,0,2.14,2c.34.24.84.62,1.1.85A19.54,19.54,0,0,0,62,118a16.28,16.28,0,0,0,6.52.23,18.13,18.13,0,0,0,4.34-2,.37.37,0,0,1,.29-.17,1.75,1.75,0,0,0,.72-.48,11.19,11.19,0,0,1,1.3-1,6.08,6.08,0,0,0,1.35-1.21,10,10,0,0,1,2.81-2.66l.87-.5h-1a4.19,4.19,0,0,1-2.78-1,19.33,19.33,0,0,0-2-1.24c-.25-.13-.75-.43-1.12-.67-2.19-1.43-2.46-1.49-4.16-.89m2.53,3.7c1,.49.35.69-2.35.75-2.15.06-3.48-.14-2.18-.32a1.24,1.24,0,0,0,.32-.08,1.36,1.36,0,0,1,.33-.12,1.94,1.94,0,0,0,.34-.11,1.94,1.94,0,0,1,.34-.11,1.36,1.36,0,0,0,.33-.12l.34-.11a1.15,1.15,0,0,0,.28-.1,1.8,1.8,0,0,1,.47-.12,1.43,1.43,0,0,0,.54-.21c.07-.07.28,0,.46.14a4.79,4.79,0,0,0,.78.51m-9.83.09,1,.44c.5.21.47.22-.34.17-.49,0-1.5-.08-2.23-.1s-1.25-.11-1.13-.23a3.57,3.57,0,0,1,2.69-.28m4.12,4c1.93,0,3.82-.14,4.19-.21.63-.12.62-.09-.21.35a6.45,6.45,0,0,1-1.12.51,1.8,1.8,0,0,0-.57.25c-.77.48-3.87.33-5.68-.28s-2.38-1-.94-.73a32.8,32.8,0,0,0,4.33.11M53.72,166.53a2.42,2.42,0,0,1-.73.2,2.3,2.3,0,0,0-.87.32,2.78,2.78,0,0,1-.91.33,8.44,8.44,0,0,0-1.4.35,4.15,4.15,0,0,1-.9.33l-.51.17.06,16.51.06,16.5.9,1.67a7.16,7.16,0,0,0,1.35,1.92,2.47,2.47,0,0,1,.56.4,11.74,11.74,0,0,0,2.5,1.27c.29.08,16.85.18,36.79.22l36.25.06-.11-8.19c-.06-4.5-.17-8.44-.24-8.75-.17-.79-.35-1.78-.5-2.7a6.43,6.43,0,0,0-.26-1.13l-.17-.45c0-.07-.17-.44-.32-.84a7.33,7.33,0,0,1-.3-.91c-.18-1.48-6-6.95-6.85-6.41a4.37,4.37,0,0,1-1.52-.42,1.2,1.2,0,0,0-.56-.19,8.66,8.66,0,0,1-1-.16c-1.74-.37-12.31-.38-12.52,0a.7.7,0,0,1-.5.36.53.53,0,0,0-.43.34.53.53,0,0,1-.45.33.56.56,0,0,0-.45.34.53.53,0,0,1-.45.34.54.54,0,0,0-.45.34.53.53,0,0,1-.45.34.55.55,0,0,0-.45.34.54.54,0,0,1-.45.34A.53.53,0,0,0,98,180a.55.55,0,0,1-.45.34.54.54,0,0,0-.45.34.53.53,0,0,1-.45.34.86.86,0,0,0-.55.28c-.18.23,1.31.28,7.33.28,9,0,10.49.15,12.46,1.17s3.76,3.42,3.76,4.88a1.31,1.31,0,0,0,.2.74c.36.38.51,2.15.62,7.72l.12,5.47h-2.87c-2.71,0-2.84,0-2.52-.39a3.28,3.28,0,0,0,.52-1,2.88,2.88,0,0,1,.34-.79c.44-.57.65-5.44.32-7.45-.4-2.51-2.52-5.36-4.52-6.11a8.22,8.22,0,0,1-1.32-.58c-.64-.47-5.17-.08-6.52.58s-3.25,2.41-3.25,3c0,.16-.1.3-.22.3s-.23.19-.23.44a.74.74,0,0,1-.22.57.9.9,0,0,0-.23.66,1.29,1.29,0,0,1-.15.67c-.5.5-.4,6.5.13,7.87.13.34.18.62.12.62s.15.36.48.8l.61.79-22.11-.07c-12.16,0-22.28-.12-22.49-.18a4.06,4.06,0,0,1-2-2.35c0-.06,0-7.41,0-16.33,0-16.56,0-16.88-.76-16.13M13.51,178.48s-.66.1-1.43.18a10.54,10.54,0,0,0-3.26.67,3.48,3.48,0,0,1-.67.22A18.28,18.28,0,0,0,5,181.21c-.94.64-3.51,5-2.95,5,.08,0,0,.13-.08.28-.35.44-.34.06-.44,16.41-.09,15.47-.07,16.36.43,15.86a1.37,1.37,0,0,1,.85-.27,1.48,1.48,0,0,0,.75-.15,1.05,1.05,0,0,1,.5-.21,14.44,14.44,0,0,0,1.4-.4c.58-.19,1.31-.4,1.62-.46l.56-.11v-14c0-7.67.08-14.35.17-14.83.25-1.26,1.38-3.07,1.93-3.07a.35.35,0,0,0,.3-.24.54.54,0,0,1,.41-.29,1.55,1.55,0,0,0,.6-.22c.45-.28,2-.43,5.62-.54l3.42-.1-.31.64a21.67,21.67,0,0,0-.9,2.1c0,.13-.29,1.43-.45,2.24a54.37,54.37,0,0,0,0,6.75c.07.29.17.7.23.91s.16.68.22,1c.59,3.55,4.47,7.66,7.89,8.35l1.23.24a21.7,21.7,0,0,0,6.86-.34c4.26-1.75,6.81-4.5,7.43-8a3.09,3.09,0,0,1,.25-.88c.34-.56.5-5,.25-7.38a19.6,19.6,0,0,0-1.89-5.89,1.28,1.28,0,0,1-.32-.54,1.2,1.2,0,0,0-.32-.55,24.06,24.06,0,0,0-1.84-1.83,17.44,17.44,0,0,0-3.79-1.9l-1.46-.22c-.83-.13-19.5-.33-19.62-.21m138,0-.67.22a5,5,0,0,1-.79.21,4.82,4.82,0,0,0-.78.23,4.11,4.11,0,0,1-.79.22,5,5,0,0,0-.79.23,4.48,4.48,0,0,1-.89.24c-1.16.19-1.11-.36-1.18,14.36-.06,13.63-.07,13.82-.55,14.86s-2.77,3.53-3.24,3.6a1.57,1.57,0,0,0-.83.28c-.91.58-5.48.74-7.57.27s-2.11-.47-2.28-.65a1,1,0,0,0-.56-.15,6.76,6.76,0,0,1-1.65-.55l-1.23-.55,1.46,2.93,1.47,2.94,1.46.69a15.84,15.84,0,0,0,7.4.8l1.9-.25a3.62,3.62,0,0,0,.9-.21l1.57-.6a12.6,12.6,0,0,0,6-4.86,14.53,14.53,0,0,0,1.33-2.76,1.25,1.25,0,0,1,.11-.4,1.19,1.19,0,0,0,.12-.34c0-.19.15-.6.24-.91.49-1.65.36-30-.14-29.85m-118.8,5.64c.34.16.62.24.62.16a5.5,5.5,0,0,1,1.14,1c1,1,2,2.33,1.64,2.33-.08,0,0,.13.11.3.5.61.76,5.11.4,7.15-.09.55-.21,1.21-.25,1.46-.21,1.18-.53,1.73-1.84,3.15s-4.07,1.85-6.11,1.13c-1.29-.45-3.1-2.25-3.3-3.28a8.35,8.35,0,0,0-.38-1.22c-.47-1.12-.38-7.44.11-7.93a1.14,1.14,0,0,0,.16-.65,5.32,5.32,0,0,1,1.84-2.77c.23-.06.41-.18.41-.28s.5-.37,1.31-.57a1.11,1.11,0,0,0,.45-.22,8.52,8.52,0,0,1,3.69.28M110.07,190c2.4,1.64,2.1,9.6-.43,11.18a3.78,3.78,0,0,1-3.33,0c-3-1.67-2.67-11,.36-11.6a5,5,0,0,1,3.4.44m-40.23,31.8c-2,1.15-1.24,4.5,1,4.26l.6-.06c.62-.06,1.65-1.42,1.65-2.18a2.36,2.36,0,0,0-3.29-2m-17.46.94a.77.77,0,0,1-.34.2,3.37,3.37,0,0,0-.49.15,14.91,14.91,0,0,1-2.11.55,2,2,0,0,0-.7.3c-.14.12-.3.18-.35.13s-.07,3.68,0,8.3c.06,9.75.08,9.85,2.11,10.89l1.07.54,9.28,0h9.84c9.91,0,12.62,0,12.86-.08s.54-.14.85-.2c1.42-.25,3.43-1.94,3.72-3.13a.81.81,0,0,1,.09-.22,92.73,92.73,0,0,0,.13-11.42c-.06-.05-.28,0-.5.08l-.52.22-.67.27a7.88,7.88,0,0,1-1.41.38l-.84.16v4.07c0,4.47-.22,5.45-1.28,5.86a34.13,34.13,0,0,1-6.58.09,8.16,8.16,0,0,1,.48-1.08c1.65-3.2-.62-9.18-3.57-9.44a1,1,0,0,1-.42-.21c-.52-.44-4.66-.12-5.41.41a3.77,3.77,0,0,1-.83.5,3.78,3.78,0,0,0-1.26,1.37.19.19,0,0,1-.18.21c-.27,0-.87,1.54-1,2.71a7.12,7.12,0,0,0,.6,4.88l.45.77h-6c-4.87,0-6.05-.06-6.31-.32s-.33-1.83-.38-8.71c0-4.62-.14-8.31-.24-8.2M97.51,229a10.73,10.73,0,0,0-3.38,1.76c-.25.27-.31,4.19-.06,4.19.08,0,.28-.18.45-.39a6.9,6.9,0,0,1,4-2.09c.55,0,2.27,1,2.27,1.28,0,.16.09.3.19.3.26,0,.29.23.41,3.21l.1,2.66H97.8c-4.24,0-3.82-.16-5.32,2.09l-1.17,1.74h14.45l-.1-5.36c-.11-6-.13-6.07-1.86-7.86A6.71,6.71,0,0,0,97.51,229m-25.17,4.28c1.52,1.31,1.27,4.26-.5,5.9-1.23,1.14-2.24.59-3.2-1.73-1.28-3.1,1.42-6.14,3.7-4.17m7.84,13.47a2.13,2.13,0,0,0-.78,3.5c1.88,2.06,5.17-.56,3.39-2.69a2.52,2.52,0,0,0-2.61-.81m6.43,0a2.16,2.16,0,1,0,2.24.93,1.94,1.94,0,0,0-2.24-.93" transform="translate(0 -1.2)"/><path id="path1" class="cls-1" d="M67.23,1.29a7.12,7.12,0,0,0,1.46,0c.4-.05.07-.09-.73-.09s-1.13,0-.73.09m-4.16.22a1.76,1.76,0,0,0,.79,0c.21-.05,0-.1-.4-.1s-.61.05-.39.1m9.1,0a2.45,2.45,0,0,0,.9,0c.22-.05,0-.1-.51-.1s-.67.05-.39.11M96,7.34a3.32,3.32,0,0,0,1.48.73c0-.05-.26-.26-.69-.46S96,7.28,96,7.34m10.68,7.79a8.64,8.64,0,0,0,1.22,1.12,6.89,6.89,0,0,0-1-1.12A9.81,9.81,0,0,0,105.72,14a6.68,6.68,0,0,0,1,1.13M61.39,17.55c1.51,0,4,0,5.5,0s.28-.07-2.75-.07-4.27,0-2.75.07m-7.19.22a6.09,6.09,0,0,0,1.35,0c.33-.05,0-.09-.74-.09s-1,0-.61.09M28.13,23.19a2.45,2.45,0,0,0,.9,0c.22-.05,0-.1-.51-.1s-.67.05-.39.11M44.2,24.55c.72,0,1.83,0,2.48,0s.06-.08-1.3-.08-1.89,0-1.18.08m5.95.22a2.45,2.45,0,0,0,.9,0c.22-.05,0-.1-.51-.1s-.67.05-.39.11M21.43,26.36l-.77.84.84-.77c.79-.73.95-.92.78-.92a7.3,7.3,0,0,0-.85.85m47.15.21a2.86,2.86,0,0,0,1,0c.28-.05,0-.1-.51-.1s-.78.05-.5.1M22.33,31.63a2.84,2.84,0,0,0-.38,1c.05,0,.31-.37.57-.93.62-1.26.45-1.34-.19-.08m84.84.65a6,6,0,0,0,1,.9,4.33,4.33,0,0,0-.77-.9,6.51,6.51,0,0,0-1-.9,3.73,3.73,0,0,0,.77.9m-24,4.91a5.5,5.5,0,0,0,1.35,0c.34,0,0-.09-.73-.09s-1,0-.62.1M51.84,39A4.19,4.19,0,0,0,53,39c.28-.06,0-.1-.62-.1s-.84,0-.5.1m4.6.23a7.12,7.12,0,0,0,1.46,0c.4,0,.08-.09-.73-.09s-1.13,0-.73.09m6.86.23c.84,0,2.16,0,2.93,0s.08-.08-1.53-.08-2.23,0-1.4.08m8,0c.78,0,2,0,2.7,0s.07-.08-1.42-.08-2.06,0-1.28.08M63.36,43.3a4.18,4.18,0,0,0,1.68,0l1.46-.15-1.68,0c-.92,0-1.57.05-1.46.15m5.22,0c1.14,0,3,0,4.15,0s.21-.08-2.08-.08-3.22,0-2.07.08M19.65,44.81c0,.31.09.56.19.56s.15-.25.09-.56a1.26,1.26,0,0,0-.19-.56s-.09.25-.09.56m78.63.62a11.5,11.5,0,0,0,1.07,1.07c.17,0,0-.2-1-1.13l-1.07-1,1,1.07m23.21,1.75c0,.43,0,.61.1.4a1.76,1.76,0,0,0,0-.79c-.06-.22-.1,0-.1.39m.23,2.71c0,.56,0,.79.1.51a3.49,3.49,0,0,0,0-1c-.06-.28-.1-.05-.1.51m-3.59,4c0,.74.05,1,.1.62a6.17,6.17,0,0,0,0-1.36c-.06-.34-.1,0-.1.74m-16.58,1.92a6.51,6.51,0,0,0,1,.9,3.73,3.73,0,0,0-.77-.9,5.54,5.54,0,0,0-1-.9,4.33,4.33,0,0,0,.77.9m-4.27,1.13a6.51,6.51,0,0,0,1,.9,3.81,3.81,0,0,0-.76-.9,6.11,6.11,0,0,0-1-.91,4.21,4.21,0,0,0,.77.91m-4.94.45a2,2,0,0,0,.46.68c.06,0,0-.31-.24-.68a2,2,0,0,0-.46-.68c-.06,0,0,.31.24.68m26,1.13c0,.56,0,.78.1.51a3.49,3.49,0,0,0,0-1c-.06-.28-.1-.05-.1.51m3.84,1c0,1.12,0,1.61.08,1.08a13.75,13.75,0,0,0,0-2c0-.59-.08-.16-.08.95M92.9,58.33a4.2,4.2,0,0,0,.8,1.49c.06,0-.06-.33-.26-.73-.42-.83-.54-1-.54-.76m25.45,2.17c0,.56,0,.79.1.51a3.49,3.49,0,0,0,0-1c-.06-.28-.1-.05-.1.51m-99.49,0a2,2,0,0,0,.46.68c.06,0,0-.31-.23-.68a2,2,0,0,0-.46-.68c-.07,0,0,.31.23.68m88.58,3.27c.2.43.41.75.46.7a3.33,3.33,0,0,0-.74-1.49s.07.36.28.79M21.51,67.5c0,.68,0,1,.1.62a5.14,5.14,0,0,0,0-1.24c-.05-.35-.1-.07-.1.62M48,70.36a1.71,1.71,0,0,0,.78,0c.22-.06,0-.1-.39-.1s-.61,0-.39.1m13.87,2.22a4.78,4.78,0,0,0,.88.79c.06,0-.23-.36-.65-.79a4.7,4.7,0,0,0-.88-.79c-.06,0,.23.35.65.79M35.66,75.51c0,.5.05.67.1.39a2.71,2.71,0,0,0,0-.9c-.06-.22-.1,0-.1.51m-6.07.23c0,.49.05.67.1.39a2.26,2.26,0,0,0,0-.9c-.06-.22-.1,0-.1.51m2.27.9c0,.87,0,1.2.09.73a9.21,9.21,0,0,0,0-1.58c-.05-.4-.08,0-.08.85m14.7-.86a2.47,2.47,0,0,0,.9,0c.21-.06,0-.1-.51-.1s-.67,0-.39.1m72.85.78c0,.15.07.2.15.11s.42.08.73.36l.58.51-.54-.62c-.58-.66-.92-.79-.92-.36m-7.57,2.34c0,.62,0,.84.09.5a3.88,3.88,0,0,0,0-1.13c-.05-.28-.09,0-.09.63m22.51,1.46a6.79,6.79,0,0,0,1,.91c.07,0-.28-.41-.76-.91a6.51,6.51,0,0,0-1-.9,3.81,3.81,0,0,0,.76.9M52,79.79a2,2,0,0,0,.68.46c.37.19.67.3.67.24a2,2,0,0,0-.67-.47c-.37-.19-.68-.29-.68-.23m11.52,4.86c0,.44,0,.61.1.4a1.76,1.76,0,0,0,0-.79c-.06-.22-.1,0-.1.39M15.93,87.16c-.2.38-.32.73-.27.78s.26-.26.46-.69c.46-1,.3-1-.19-.09m95.91.31c0,.62,0,.85.09.51a3.88,3.88,0,0,0,0-1.13c-.05-.28-.09,0-.09.62m-90.79.34c0,.44,0,.61.1.4a1.76,1.76,0,0,0,0-.79c-.06-.22-.1,0-.1.39m45.86,1.13c0,.93,0,1.31.09.85a9.65,9.65,0,0,0,0-1.7c0-.46-.09-.08-.09.85m-3.14,1.24c0,1,0,1.37.08.84a10.81,10.81,0,0,0,0-1.8c-.05-.46-.09,0-.08,1m43.81,4.29c0,1.12,0,1.6.09,1.08a15.27,15.27,0,0,0,0-2c0-.59-.09-.17-.09,1m-74.07-.71a.82.82,0,0,0,.09.62c.14.23.2.15.2-.3,0-.68-.11-.8-.29-.32m33.61.71c0,.5,0,.67.1.39a2.46,2.46,0,0,0,0-.9c0-.21-.1,0-.09.51m56.41,2c0,1,0,1.37.09.84a10.81,10.81,0,0,0,0-1.8c-.05-.46-.09,0-.09,1M64,96.62c0,.93,0,1.31.09.84a9.54,9.54,0,0,0,0-1.69c0-.47-.09-.09-.09.85m3.12-.46c0,.44,0,.62.1.4a1.76,1.76,0,0,0,0-.79c0-.22-.1,0-.1.39m-42.95,3.5a2.36,2.36,0,0,0,.32.79c.18.31.32.47.32.34a2.44,2.44,0,0,0-.32-.79c-.18-.31-.32-.46-.32-.34M123.31,102c0,1.18,0,1.67.09,1.08a19.28,19.28,0,0,0,0-2.15c-.05-.59-.09-.11-.09,1.07M15,102.15c0,.49,0,.67.1.39a2.45,2.45,0,0,0,0-.9c-.05-.22-.1,0-.09.51m49.2.34c0,.43,0,.61.1.39a1.76,1.76,0,0,0,0-.79c-.05-.22-.1,0-.1.4m-49.18,3c0,1.37,0,1.9.09,1.18s0-1.84,0-2.48-.09-.06-.09,1.3m52.22-2a2.46,2.46,0,0,0,.9,0c.21-.05,0-.1-.51-.09s-.67,0-.39.1m69.05,6.27a2.36,2.36,0,0,0,.32.79c.18.31.32.46.32.34a2.44,2.44,0,0,0-.32-.79c-.18-.31-.32-.46-.32-.34m-56.9.28c.71.09.73.11.34.43s-.38.32.09.09c.77-.38.61-.69-.34-.65l-.84,0,.75.09m-20.3.29c-.08.12.12.22.45.22s.53-.1.45-.22a.56.56,0,0,0-.45-.23.57.57,0,0,0-.45.23m66.17,1.12a6.8,6.8,0,0,0,.8,1.36,5.53,5.53,0,0,0-.57-1.36,6.59,6.59,0,0,0-.79-1.35,4.72,4.72,0,0,0,.56,1.35m26.8,2.71c0,.56,0,.79.1.51a3.42,3.42,0,0,0,0-1c-.05-.28-.1-.06-.1.5M60.77,114c0,.36.68.52,1.08.26s.33-.23,0-.11a.84.84,0,0,1-.73-.13c-.19-.15-.31-.17-.31,0m-51.62.84c0,.49,0,.67.1.39a2.45,2.45,0,0,0,0-.9c-.05-.22-.1,0-.09.51m77.11,3.33-1.11,1.18,1.18-1.12c.64-.61,1.18-1.15,1.18-1.18s-.21,0-1.25,1.12m43.56,5.47c0,.75,0,1,.09.62a6.17,6.17,0,0,0,0-1.36c0-.34-.09,0-.09.74m-38,.9a16.07,16.07,0,0,0-1.57,1.7,18,18,0,0,0,1.79-1.7,16,16,0,0,0,1.56-1.69,20.78,20.78,0,0,0-1.78,1.69m-69.14.12c0,.68,0,1,.09.62a5.14,5.14,0,0,0,0-1.24c-.05-.35-.09-.07-.09.62m73.73.28L95,126.3,96.44,125c.77-.74,1.4-1.37,1.4-1.41s-.22,0-1.47,1.35m-18.58-.61c-.84.46-.79.65,0,.21a1.93,1.93,0,0,0,.68-.45c0-.15,0-.14-.73.24m55.65,1.51-.66.74.73-.67c.68-.62.84-.8.66-.8a6.18,6.18,0,0,0-.73.73m-16.22,3a2.1,2.1,0,0,0,.79,0c.21-.06,0-.11-.39-.11s-.61.05-.4.11m30.89,1.09a4.54,4.54,0,0,0-.5,1.23,8.53,8.53,0,0,0,1.18-2.38,4,4,0,0,0-.68,1.15m-66.39.26a1.76,1.76,0,0,0,.79,0c.21-.06,0-.1-.4-.1s-.61,0-.39.1m-47.8,1.42c-.19.38-.3.68-.24.68a1.89,1.89,0,0,0,.46-.68c.19-.37.3-.67.24-.67a1.91,1.91,0,0,0-.46.67m94.86,2.61c-.53,1.11-.46,1.3.1.25a2.39,2.39,0,0,0,.36-1c-.05,0-.25.26-.46.7m-122,1.68a6.27,6.27,0,0,0,1,.91,3.87,3.87,0,0,0-.77-.91,6,6,0,0,0-1-.9,4.05,4.05,0,0,0,.77.9m72.8,5.42a9.81,9.81,0,0,0,1.22,1.13,6.68,6.68,0,0,0-1-1.13,9.34,9.34,0,0,0-1.21-1.13,5.82,5.82,0,0,0,1,1.13m22.08.36c-.84.45-.79.64,0,.21a2.18,2.18,0,0,0,.68-.46c0-.15,0-.14-.73.25m35.55,2.91a16.56,16.56,0,0,0-1.56,1.7,19.37,19.37,0,0,0,1.79-1.7,16,16,0,0,0,1.56-1.69,20.07,20.07,0,0,0-1.79,1.69m-26.8,12.47a8.33,8.33,0,0,0,1.58,0c.46-.05.14-.09-.73-.09s-1.25,0-.85.09M54.58,182.62c0,9,0,12.68.06,8.18s0-11.86,0-16.36-.06-.82-.06,8.18M18.24,178.5c2.51,0,6.6,0,9.1,0s.46-.07-4.55-.07-7,0-4.55.07m104,1.64a6.51,6.51,0,0,0,1,.9,3.81,3.81,0,0,0-.76-.9,6.79,6.79,0,0,0-1-.91c-.07,0,.28.41.76.91M6.56,180c-.87.48-.77.64.11.19s1-.55.71-.53a3.19,3.19,0,0,0-.82.34m93.14,1.62c2.07,0,5.45,0,7.52,0s.38-.07-3.76-.07-5.83,0-3.76.07m7.86,3.37a1.76,1.76,0,0,0,.79,0c.21-.05,0-.1-.4-.1s-.61,0-.39.1M25.37,186.7c-.2.39-.32.74-.27.79s.25-.26.46-.7c.46-1,.3-1-.19-.09m17.47,3.82c0,.44,0,.61.11.4a2.1,2.1,0,0,0,0-.79c-.06-.22-.11,0-.11.39m-24.68,1.69c0,1.25,0,1.72.08,1.07a17,17,0,0,0,0-2.26c0-.58-.08-.05-.08,1.19M7.62,203.61c0,7.39,0,10.41.06,6.72s0-9.74,0-13.43-.06-.67-.06,6.71m29.17-10.72c0,.62.05.85.1.51a3.86,3.86,0,0,0,0-1.13c-.05-.28-.09,0-.09.62m62.48,2.37c0,1.18,0,1.66.09,1.07a19.1,19.1,0,0,0,0-2.14c0-.59-.09-.11-.09,1.07m17.29-.34c0,.75,0,1,.09.62a6.08,6.08,0,0,0,0-1.35c-.05-.34-.09,0-.09.73M104.2,195c0,.68,0,1,.09.62a4.29,4.29,0,0,0,0-1.24c-.05-.35-.09-.07-.09.62m22.73,5.3c0,3.6,0,5,.07,3.2s0-4.78,0-6.54-.07-.26-.07,3.34m-107.51-.7a4.2,4.2,0,0,0,.8,1.49c.06,0,0-.33-.26-.73-.41-.83-.54-1-.54-.76m10,1.42a1.71,1.71,0,0,0,.78,0c.22-.06,0-.1-.39-.1s-.61,0-.39.1m38.63.47c6,0,15.92,0,22,0s1.17-.06-10.94-.06-17.1,0-11.08.06m48.33,0a28.43,28.43,0,0,0,2.92,0c.77,0,.08-.08-1.52-.08s-2.24,0-1.4.08m-86.51,5a9.43,9.43,0,0,0,1.68,0c.46-.05.09-.09-.84-.09s-1.31,0-.84.09m97.85,4.72c.16.07.24.19.19.28s.07.16.28.17a4,4,0,0,1,.82.17c.25.09.1,0-.33-.29a3.75,3.75,0,0,0-1-.45c-.12,0-.09.06.06.12m7.08,2.27a2,2,0,0,0,.78,0c.22-.06,0-.11-.39-.11s-.61,0-.39.11m-5.23,1.73a7,7,0,0,0,1.11,2c.12.07,0-.35-.37-.94-.67-1.23-.74-1.33-.74-1.11m6.8,3.69a5.14,5.14,0,0,0,1.24,0c.34-.05.06-.09-.62-.09s-1,0-.62.09m-88,5.31c-.06.16-.08,3.69,0,7.85l.06,7.56.11-7.85c.06-4.31.08-7.84.05-7.84s-.11.13-.17.28m40.21,9.43c0,2.79,0,3.93.07,2.54s0-3.69,0-5.08-.07-.26-.07,2.54M99,228.83a2.1,2.1,0,0,0,.79,0c.21-.06,0-.11-.39-.11s-.61.05-.4.11M84.23,234c0,2.35,0,3.29.07,2.07s0-3.15,0-4.29-.07-.14-.07,2.22m9.65-1c0,1,0,1.49.08,1A12.31,12.31,0,0,0,94,232c0-.53-.08-.1-.08,1m7.42,4.51c0,1.43,0,2,.08,1.3s0-1.88,0-2.59-.08-.13-.08,1.29M64,235.89c0,.44,0,.62.1.4a2.1,2.1,0,0,0,0-.79c-.06-.22-.1,0-.1.39m4.26,0c0,.44,0,.62.11.4a2.1,2.1,0,0,0,0-.79c-.06-.22-.11,0-.11.39M56.91,244c2.26,0,5.9,0,8.09,0s.33-.06-4.12-.06-6.24,0-4,.06M75,244c1.34,0,3.46,0,4.72,0s.17-.07-2.43-.07-3.62,0-2.29.07m7.53,3.4c.33.34.65.6.7.56s-.92-1.19-1.13-1.19.1.28.43.63m2.74-.07c-.29.31-.48.59-.43.63s.36-.22.7-.56.52-.63.43-.63a2,2,0,0,0-.7.56m-2.74,3.1c-.33.35-.53.63-.43.63s1.26-1.11,1.13-1.19-.37.21-.7.56m2.29-.53c0,.22,1.1,1.27,1.19,1.14s-.22-.37-.56-.7-.63-.53-.63-.44m-4.21,1.31a1.71,1.71,0,0,0,.78,0c.22,0,0-.1-.39-.1s-.61.05-.39.1" transform="translate(0 -1.2)"/><path id="path2" class="cls-1" d="M38.63,12.25l-1.12,1.18,1.18-1.12c1.1-1,1.28-1.25,1.12-1.25a15.06,15.06,0,0,0-1.18,1.19M38.29,24.1l-.78.85.84-.78c.79-.73.95-.92.78-.92a6.81,6.81,0,0,0-.84.85m66.52,11.46a5.29,5.29,0,0,0,.87.79c.06,0-.23-.36-.65-.79a4.81,4.81,0,0,0-.87-.79c-.06,0,.23.35.65.79M136.25,82c.94,1,1.14,1.18,1.14,1a12.34,12.34,0,0,0-1.07-1.08l-1.07-1,1,1.07m-11.57,58-.66.74.73-.67c.68-.61.83-.8.66-.8a5.44,5.44,0,0,0-.73.73" transform="translate(0 -1.2)"/><path id="path3" class="cls-1" d="M38.63,12.25l-1.12,1.18,1.18-1.12c1.1-1,1.28-1.25,1.12-1.25a15.06,15.06,0,0,0-1.18,1.19M38.29,24.1l-.78.85.84-.78c.79-.73.95-.92.78-.92a6.81,6.81,0,0,0-.84.85m66.52,11.46a5.29,5.29,0,0,0,.87.79c.06,0-.23-.36-.65-.79a4.81,4.81,0,0,0-.87-.79c-.06,0,.23.35.65.79M136.25,82c.94,1,1.14,1.18,1.14,1a12.34,12.34,0,0,0-1.07-1.08l-1.07-1,1,1.07m-11.57,58-.66.74.73-.67c.68-.61.83-.8.66-.8a5.44,5.44,0,0,0-.73.73" transform="translate(0 -1.2)"/><path id="path4" class="cls-1" d="M38.63,12.25l-1.12,1.18,1.18-1.12c1.1-1,1.28-1.25,1.12-1.25a15.06,15.06,0,0,0-1.18,1.19M38.29,24.1l-.78.85.84-.78c.79-.73.95-.92.78-.92a6.81,6.81,0,0,0-.84.85m66.52,11.46a5.29,5.29,0,0,0,.87.79c.06,0-.23-.36-.65-.79a4.81,4.81,0,0,0-.87-.79c-.06,0,.23.35.65.79M136.25,82c.94,1,1.14,1.18,1.14,1a12.34,12.34,0,0,0-1.07-1.08l-1.07-1,1,1.07m-11.57,58-.66.74.73-.67c.68-.61.83-.8.66-.8a5.44,5.44,0,0,0-.73.73" transform="translate(0 -1.2)"/></g></svg>